# xmcd
#
# Track frame offsets: 
#        150
#        16134
#        32908
#        45546
#        60572
#        73828
#        91324
#        102466
#        116839
#        134926
#
# Disc length: 2012 seconds
#
# Revision: 0
# Processed by: cddbd v1.5.2PL0 Copyright (c) Steve Scherf et al.
# Submitted via: ExactAudioCopy v0.99pb4
#
DISCID=9107da0a
DTITLE=The Living Water Trio - I'll Not Sit Down
DYEAR=2007
DGENRE=Gospel
TTITLE0=Full Of Grace And Truth
TTITLE1=I've Been Considered
TTITLE2=He Is Mine And I Am His
TTITLE3=Precious Jesus
TTITLE4=That's Beautiful
TTITLE5=A Loving Prayer
TTITLE6=He Set Me Free
TTITLE7=Follow Me
TTITLE8=I'll Not Sit Down
TTITLE9=Somebody's Praying
EXTD=
EXTT0=
EXTT1=
EXTT2=
EXTT3=
EXTT4=
EXTT5=
EXTT6=
EXTT7=
EXTT8=
EXTT9=
PLAYORDER=
